<?xml version="1.0" encoding="UTF-8" standalone="no"?>
<svg
   xmlns:dc="http://purl.org/dc/elements/1.1/"
   xmlns:cc="http://creativecommons.org/ns#"
   xmlns:rdf="http://www.w3.org/1999/02/22-rdf-syntax-ns#"
   xmlns:svg="http://www.w3.org/2000/svg"
   xmlns="http://www.w3.org/2000/svg"
   viewBox="0 0 299.99999 200"
   height="200"
   width="300"
   xml:space="preserve"
   version="1.1"
   id="svg2"><metadata
     id="metadata8"><rdf:RDF><cc:Work
         rdf:about=""><dc:format>image/svg+xml</dc:format><dc:type
           rdf:resource="http://purl.org/dc/dcmitype/StillImage" /><dc:title></dc:title></cc:Work></rdf:RDF></metadata><defs
     id="defs6"><clipPath
       id="clipPath20"
       clipPathUnits="userSpaceOnUse"><path
         id="path22"
         d="m 0,595.28 841.89,0 L 841.89,0 0,0 0,595.28 Z" /></clipPath></defs><g
     transform="matrix(1.25,0,0,-1.25,-190.90615,487.25589)"
     id="g10"><g
       transform="matrix(0.44498229,0,0,0.44498229,84.765047,175.47345)"
       id="g4194"><text
         transform="matrix(1,0,0,-1,329.6973,230.0635)"
         style="font-variant:normal;font-weight:bold;font-stretch:normal;font-size:26.5px;font-family:'Open Sans';-inkscape-font-specification:OpenSans-Bold;writing-mode:lr-tb;fill:#ffffff;fill-opacity:1;fill-rule:nonzero;stroke:none"
         id="text12"><tspan
           x="0 19.610001 27.825001 46.030499 56.126999 72.795502 90.656502 98.871498 121.741 137.90601 154.57449 181.52499 203.944 222.759 241.67999 249.895 265.8215 281.98651 300.80151 319.3515 329.448 347.6535"
           y="0"
           id="tspan14">A CITY NETWORK SERVICE</tspan></text>
<g
         id="g16"><g
           id="g18"
           clip-path="url(#clipPath20)"><g
             id="g24"
             transform="translate(347.9374,283.5308)"><path
               d="m 0,0 c -3.516,0 -6.418,0.312 -8.713,0.935 -2.295,0.623 -4.109,1.713 -5.44,3.273 -1.333,1.557 -2.253,3.668 -2.764,6.332 -0.51,2.663 -0.764,6.063 -0.764,10.2 l 0,5.355 c 0,4.08 0.254,7.466 0.764,10.157 0.511,2.691 1.431,4.816 2.764,6.375 1.331,1.559 3.145,2.649 5.44,3.273 2.295,0.622 5.197,0.935 8.713,0.935 l 9.858,0 c 9.068,0 13.601,-4.45 13.601,-13.345 l 0,-2.465 c 0,-1.417 -0.737,-2.125 -2.209,-2.125 l -6.035,0 c -1.419,0 -2.127,0.708 -2.127,2.125 l 0,1.02 c 0,1.585 -0.395,2.833 -1.189,3.74 -0.793,0.906 -2.409,1.36 -4.846,1.36 l -5.1,0 c -1.814,0 -3.271,-0.127 -4.377,-0.382 -1.104,-0.255 -1.953,-0.808 -2.549,-1.658 -0.596,-0.85 -0.977,-2.04 -1.148,-3.571 -0.171,-1.529 -0.254,-3.569 -0.254,-6.119 l 0,-4.165 c 0,-2.55 0.083,-4.59 0.254,-6.121 C -5.95,13.6 -5.569,12.41 -4.973,11.56 -4.377,10.709 -3.528,10.157 -2.424,9.902 -1.318,9.647 0.139,9.52 1.953,9.52 l 5.1,0 c 2.324,0 3.911,0.453 4.761,1.36 0.85,0.906 1.274,2.35 1.274,4.335 l 0,0.935 c 0,1.473 0.738,2.209 2.212,2.209 l 5.95,0 c 1.472,0 2.209,-0.736 2.209,-2.209 l 0,-1.276 C 23.459,4.957 18.926,0 9.858,0 L 0,0 Z"
               style="fill:#ffffff;fill-opacity:1;fill-rule:nonzero;stroke:none"
               id="path26" /></g><g
             id="g28"
             transform="translate(381.6801,283.9556)"><path
               d="m 0,0 c -1.416,0 -2.124,0.708 -2.124,2.125 l 0,41.649 c 0,1.474 0.708,2.211 2.124,2.211 l 6.97,0 c 1.416,0 2.127,-0.737 2.127,-2.211 l 0,-41.649 C 9.097,0.708 8.386,0 6.97,0 L 0,0 Z m 0,51.085 c -1.416,0 -2.124,0.708 -2.124,2.125 l 0,6.63 c 0,1.473 0.708,2.21 2.124,2.21 l 6.97,0 c 1.416,0 2.127,-0.737 2.127,-2.21 l 0,-6.63 c 0,-1.417 -0.711,-2.125 -2.127,-2.125 l -6.97,0 z"
               style="fill:#ffffff;fill-opacity:1;fill-rule:nonzero;stroke:none"
               id="path30" /></g><g
             id="g32"
             transform="translate(413.5551,283.9556)"><path
               d="m 0,0 c -2.493,0 -4.534,0.198 -6.121,0.594 -1.587,0.397 -2.832,1.064 -3.737,1.999 -0.909,0.935 -1.531,2.167 -1.871,3.697 -0.341,1.53 -0.51,3.456 -0.51,5.78 l 0,39.27 c 0,1.473 0.708,2.21 2.124,2.21 l 6.97,0 c 1.416,0 2.124,-0.737 2.124,-2.21 l 0,-6.12 10.457,0 c 1.472,0 2.21,-0.738 2.21,-2.21 l 0,-4.93 c 0,-1.417 -0.738,-2.125 -2.21,-2.125 l -10.457,0 0,-23.035 c 0,-1.36 0.269,-2.295 0.809,-2.805 C 0.325,9.604 1.245,9.351 2.551,9.351 l 5.525,0 C 9.492,9.351 10.2,8.613 10.2,7.14 l 0,-5.015 C 10.2,0.708 9.492,0 8.076,0 L 0,0 Z"
               style="fill:#ffffff;fill-opacity:1;fill-rule:nonzero;stroke:none"
               id="path34" /></g><g
             id="g36"
             transform="translate(432.764,267.8911)"><path
               d="m 0,0 c -1.416,0 -2.124,0.736 -2.124,2.209 l 0,5.015 c 0,1.417 0.708,2.125 2.124,2.125 l 7.991,0 c 1.472,0 2.549,0.227 3.23,0.68 0.678,0.454 1.218,1.248 1.613,2.381 l 1.277,3.654 -2.126,0 c -0.454,0 -0.764,0.226 -0.935,0.68 l -14.79,43.35 c 0,1.304 0.622,1.956 1.87,1.956 l 7.566,0 c 0.849,0 1.472,-0.143 1.87,-0.425 0.395,-0.285 0.708,-0.795 0.935,-1.531 l 9.094,-30.769 c 0.113,-0.284 0.31,-0.426 0.596,-0.426 l 0.935,0 10.115,31.195 c 0.224,0.736 0.537,1.246 0.935,1.531 0.395,0.282 0.991,0.425 1.784,0.425 l 6.971,0 c 1.416,0 2.124,-0.652 2.124,-1.956 L 22.781,8.925 C 22.156,7.281 21.477,5.894 20.74,4.76 20.002,3.627 19.082,2.706 17.979,1.997 16.873,1.289 15.554,0.779 14.026,0.468 12.495,0.156 10.681,0 8.586,0 L 0,0 Z"
               style="fill:#ffffff;fill-opacity:1;fill-rule:nonzero;stroke:none"
               id="path38" /></g><g
             id="g40"
             transform="translate(499.5504,283.5308)"><path
               d="m 0,0 c -3.401,0 -6.191,0.312 -8.372,0.935 -2.182,0.623 -3.925,1.713 -5.229,3.273 -1.304,1.557 -2.21,3.668 -2.72,6.332 -0.51,2.663 -0.764,6.063 -0.764,10.2 l 0,5.355 c 0,4.08 0.254,7.466 0.764,10.157 0.51,2.691 1.416,4.816 2.72,6.375 1.304,1.559 3.047,2.649 5.229,3.273 2.181,0.622 4.971,0.935 8.372,0.935 l 9.519,0 c 8.784,0 13.176,-4.45 13.176,-13.345 l 0,-3.146 c 0,-0.963 -0.483,-1.444 -1.445,-1.444 l -3.74,0 c -0.908,0 -1.36,0.481 -1.36,1.444 l 0,2.976 c 0,2.605 -0.498,4.49 -1.487,5.652 -0.994,1.161 -2.932,1.743 -5.823,1.743 l -7.651,0 c -2.38,0 -4.292,-0.157 -5.737,-0.467 -1.446,-0.313 -2.578,-0.978 -3.399,-1.998 -0.823,-1.02 -1.36,-2.494 -1.616,-4.421 -0.254,-1.926 -0.383,-4.504 -0.383,-7.734 l 0,-5.441 c 0,-3.23 0.129,-5.808 0.383,-7.734 0.256,-1.928 0.793,-3.4 1.616,-4.42 0.821,-1.021 1.953,-1.687 3.399,-1.997 1.445,-0.313 3.357,-0.468 5.737,-0.468 l 7.651,0 c 2.891,0 4.829,0.651 5.823,1.955 0.989,1.303 1.487,3.4 1.487,6.29 l 0,2.635 c 0,0.396 0.098,0.735 0.298,1.02 0.198,0.283 0.581,0.424 1.147,0.424 l 3.655,0 c 0.962,0 1.445,-0.482 1.445,-1.444 l 0,-2.041 C 22.695,4.957 18.303,0 9.519,0 L 0,0 Z"
               style="fill:#d3d2d2;fill-opacity:1;fill-rule:nonzero;stroke:none"
               id="path42" /></g><g
             id="g44"
             transform="translate(532.7853,283.9556)"><path
               d="m 0,0 c -0.908,0 -1.36,0.481 -1.36,1.445 l 0,59.16 c 0,0.962 0.452,1.445 1.36,1.445 l 4.333,0 c 0.906,0 1.363,-0.483 1.363,-1.445 l 0,-59.16 C 5.696,0.481 5.239,0 4.333,0 L 0,0 Z"
               style="fill:#d3d2d2;fill-opacity:1;fill-rule:nonzero;stroke:none"
               id="path46" /></g><g
             id="g48"
             transform="translate(583.6129,309.8809)"><path
               d="m 0,0 c 0,3.23 -0.127,5.808 -0.381,7.734 -0.254,1.927 -0.752,3.387 -1.489,4.378 -0.737,0.991 -1.773,1.628 -3.101,1.913 -1.333,0.283 -3.105,0.424 -5.312,0.424 l -7.31,0 c -2.212,0 -3.984,-0.141 -5.312,-0.424 -1.333,-0.285 -2.368,-0.922 -3.106,-1.913 -0.737,-0.991 -1.23,-2.451 -1.484,-4.378 C -27.754,5.808 -27.881,3.23 -27.881,0 l 0,-5.865 c 0,-3.23 0.127,-5.81 0.386,-7.735 0.254,-1.927 0.747,-3.387 1.484,-4.377 0.738,-0.993 1.773,-1.63 3.106,-1.913 1.328,-0.285 3.1,-0.425 5.312,-0.425 l 7.31,0 c 2.207,0 3.979,0.14 5.312,0.425 1.328,0.283 2.364,0.92 3.101,1.913 0.737,0.99 1.235,2.45 1.489,4.377 C -0.127,-11.675 0,-9.095 0,-5.865 L 0,0 Z m -17.593,-26.35 c -3.403,0 -6.206,0.298 -8.418,0.892 -2.207,0.595 -3.965,1.658 -5.268,3.187 -1.304,1.531 -2.212,3.614 -2.72,6.248 -0.508,2.636 -0.767,5.992 -0.767,10.073 l 0,6.034 c 0,4.081 0.259,7.438 0.767,10.073 0.508,2.635 1.416,4.717 2.72,6.248 1.303,1.53 3.061,2.593 5.268,3.187 2.212,0.595 5.015,0.893 8.418,0.893 l 7.31,0 c 3.398,0 6.206,-0.298 8.413,-0.893 C 0.342,18.998 2.095,17.935 3.403,16.405 4.702,14.874 5.61,12.792 6.123,10.157 6.631,7.522 6.885,4.165 6.885,0.084 l 0,-6.034 c 0,-4.081 -0.254,-7.437 -0.762,-10.073 -0.513,-2.634 -1.421,-4.717 -2.72,-6.248 -1.308,-1.529 -3.061,-2.592 -5.273,-3.187 -2.207,-0.594 -5.015,-0.892 -8.413,-0.892 l -7.31,0 z"
               style="fill:#d3d2d2;fill-opacity:1;fill-rule:nonzero;stroke:none"
               id="path50" /></g><g
             id="g52"
             transform="translate(616.7623,283.5308)"><path
               d="m 0,0 c -3.628,0 -6.531,0.227 -8.711,0.68 -2.183,0.453 -3.84,1.204 -4.973,2.252 -1.135,1.049 -1.885,2.409 -2.254,4.08 -0.368,1.671 -0.551,3.725 -0.551,6.163 l 0,31.79 c 0,0.963 0.481,1.445 1.445,1.445 l 4.251,0 c 0.961,0 1.442,-0.482 1.442,-1.445 l 0,-31.875 c 0,-1.304 0.13,-2.409 0.384,-3.315 0.256,-0.908 0.708,-1.644 1.36,-2.21 0.651,-0.567 1.572,-0.965 2.763,-1.19 1.189,-0.228 2.72,-0.34 4.59,-0.34 l 7.82,0 c 1.982,0 3.581,0.127 4.802,0.382 1.218,0.255 2.168,0.651 2.847,1.19 0.681,0.539 1.133,1.26 1.36,2.168 0.227,0.906 0.342,2.04 0.342,3.4 l 0,31.79 c 0,0.963 0.478,1.445 1.442,1.445 l 4.165,0 c 1.021,0 1.531,-0.482 1.531,-1.445 l 0,-31.79 C 24.055,10.737 23.87,8.683 23.503,7.012 23.135,5.341 22.368,3.981 21.208,2.932 20.046,1.884 18.359,1.133 16.15,0.68 13.94,0.227 10.964,0 7.227,0 L 0,0 Z"
               style="fill:#d3d2d2;fill-opacity:1;fill-rule:nonzero;stroke:none"
               id="path54" /></g><g
             id="g56"
             transform="translate(685.0192,318.6357)"><path
               d="m 0,0 c -0.852,1.472 -2.168,2.748 -3.953,3.824 -1.784,1.077 -4.436,1.615 -7.949,1.615 l -6.714,0 c -1.699,0 -3.103,-0.199 -4.206,-0.594 -1.106,-0.397 -1.985,-1.162 -2.637,-2.295 -0.652,-1.134 -1.118,-2.734 -1.401,-4.802 -0.286,-2.069 -0.425,-4.748 -0.425,-8.034 l 0,-2.804 c 0,-3.344 0.139,-6.035 0.425,-8.076 0.283,-2.04 0.749,-3.626 1.401,-4.759 0.652,-1.134 1.531,-1.9 2.637,-2.295 1.103,-0.397 2.507,-0.595 4.206,-0.595 l 6.714,0 c 3.513,0 6.165,0.537 7.949,1.615 1.785,1.076 3.101,2.35 3.953,3.825 L 0,0 Z m 1.699,-34.68 c -1.02,0 -1.531,0.481 -1.531,1.445 l 0,2.72 c -0.905,-1.077 -2.409,-2.112 -4.504,-3.103 -2.097,-0.991 -4.79,-1.487 -8.076,-1.487 l -7.224,0 c -2.72,0 -5.03,0.339 -6.926,1.019 -1.9,0.68 -3.431,1.841 -4.59,3.485 -1.162,1.643 -2,3.881 -2.51,6.716 -0.508,2.833 -0.764,6.43 -0.764,10.795 l 0,2.804 c 0,4.307 0.256,7.891 0.764,10.754 0.51,2.86 1.348,5.113 2.51,6.757 1.159,1.642 2.69,2.804 4.59,3.484 1.896,0.681 4.206,1.021 6.926,1.021 l 7.224,0 c 3.286,0 5.952,-0.497 7.991,-1.487 C -2.38,9.25 -0.908,8.215 0,7.14 l 0,18.785 c 0,0.962 0.481,1.444 1.443,1.444 l 4.165,0 c 0.964,0 1.445,-0.482 1.445,-1.444 l 0,-59.16 c 0,-0.964 -0.481,-1.445 -1.445,-1.445 l -3.909,0 z"
               style="fill:#d3d2d2;fill-opacity:1;fill-rule:nonzero;stroke:none"
               id="path58" /></g><g
             id="g60"
             transform="translate(301.2718,304.6255)"><path
               d="m 0,0 c -1.052,1.823 -2.438,3.329 -4.031,4.501 l 0.005,0.003 c 0,0 -3.402,2.359 -7.374,5.96 -3.436,3.116 -7.298,7.16 -9.755,11.415 -2.457,4.255 -4.028,9.622 -5.008,14.155 -1.133,5.24 -1.474,9.366 -1.474,9.366 l -0.006,-0.003 c -0.219,1.966 -0.83,3.92 -1.882,5.742 -1.019,1.766 -2.348,3.241 -3.878,4.397 -0.765,0.578 -1.581,1.076 -2.433,1.491 -0.852,0.415 -1.741,0.746 -2.653,0.991 -0.913,0.244 -1.848,0.401 -2.794,0.468 -0.945,0.067 -1.9,0.043 -2.852,-0.075 -1.903,-0.236 -3.791,-0.849 -5.556,-1.868 -0.452,-0.261 -0.884,-0.544 -1.297,-0.843 -0.054,-0.039 -0.101,-0.084 -0.154,-0.123 -0.36,-0.269 -0.709,-0.547 -1.039,-0.843 -0.017,-0.016 -0.033,-0.033 -0.05,-0.049 -0.734,-0.665 -1.388,-1.394 -1.961,-2.174 l -10e-4,0 -0.003,0.006 c 0,0 -8.2,-11.832 -17.374,-17.129 -7.453,-4.079 -18.616,-4.999 -24.26,-6.364 -2.781,-0.725 -4.357,-1.635 -5.001,-2.006 -7.061,-4.077 -9.48,-13.106 -5.403,-20.167 4.076,-7.061 13.105,-9.48 20.166,-5.403 0.644,0.371 2.22,1.281 4.238,3.327 4.004,4.205 10.382,13.413 17.641,17.828 0.835,0.508 1.738,0.942 2.657,1.363 5.009,2.056 10.453,2.131 15.359,0.516 4.109,-1.353 7.842,-3.887 10.614,-7.475 0.585,-0.825 1.13,-1.663 1.619,-2.509 0.489,-0.847 0.942,-1.738 1.363,-2.658 1.722,-4.194 2.05,-8.694 1.167,-12.928 -1.054,-5.057 -3.841,-9.734 -8.126,-13.044 -0.824,-0.586 -1.652,-1.15 -2.509,-1.62 -7.453,-4.078 -18.616,-4.998 -24.26,-6.363 -2.781,-0.725 -4.357,-1.635 -5,-2.007 -7.061,-4.076 -9.481,-13.105 -5.404,-20.166 4.077,-7.061 13.105,-9.48 20.166,-5.403 1.823,1.052 3.329,2.438 4.501,4.031 l 0.003,-0.005 c 0,0 8.201,11.832 17.375,17.129 9.175,5.296 23.522,6.482 23.522,6.482 l -0.003,0.006 c 1.965,0.218 3.919,0.83 5.742,1.882 C 1.657,-16.09 4.077,-7.061 0,0"
               style="fill:#0090cb;fill-opacity:1;fill-rule:nonzero;stroke:none"
               id="path62" /></g><g
             id="g64"
             transform="translate(249.1033,293.0124)"><path
               d="m 0,0 c 0,0 3.592,0.614 6.433,2.254 7.061,4.077 9.48,13.105 5.403,20.166 C 7.76,29.481 -1.269,31.9 -8.33,27.824 -11.171,26.183 -13.498,23.38 -13.498,23.38 -19.555,16.647 -21.75,12.14 -30.209,6.669 -31.056,6.18 -31.947,5.726 -32.866,5.305 -37.875,3.249 -43.319,3.175 -48.226,4.79 c -4.106,1.351 -7.836,3.883 -10.608,7.467 -0.587,0.827 -1.134,1.668 -1.624,2.517 -0.49,0.849 -0.945,1.743 -1.367,2.665 -1.715,4.184 -2.044,8.671 -1.168,12.896 1.057,5.05 3.851,9.762 8.131,13.068 0.824,0.586 1.652,1.151 2.509,1.62 7.453,4.079 18.616,4.999 24.26,6.363 2.781,0.726 4.357,1.636 5,2.007 7.061,4.077 9.481,13.106 5.404,20.166 -4.077,7.061 -13.105,9.48 -20.166,5.404 -1.823,-1.052 -3.329,-2.439 -4.501,-4.032 l -0.003,0.006 c 0,0 -8.201,-11.832 -17.375,-17.129 -9.174,-5.297 -23.522,-6.483 -23.522,-6.483 l 0.003,-0.005 c -1.965,-0.219 -3.919,-0.83 -5.742,-1.882 -7.06,-4.077 -9.48,-13.106 -5.403,-20.167 1.052,-1.822 2.438,-3.328 4.032,-4.501 l -0.006,-0.003 c 0,0 3.402,-2.359 7.374,-5.96 3.436,-3.115 7.298,-7.159 9.755,-11.415 2.457,-4.255 4.028,-9.622 5.008,-14.155 1.133,-5.24 1.474,-9.366 1.474,-9.366 l 0.006,0.003 c 0.007,-0.062 0.006,-0.124 0.014,-0.185 0.236,-1.903 0.849,-3.792 1.868,-5.557 4.077,-7.061 13.106,-9.48 20.166,-5.403 0.452,0.261 0.884,0.543 1.297,0.843 0.054,0.039 0.101,0.083 0.154,0.123 0.36,0.268 0.709,0.547 1.039,0.842 0.018,0.016 0.033,0.035 0.051,0.051 0.733,0.664 1.387,1.393 1.96,2.172 l 0.001,0 0.003,-0.005 c 0,0 7.944,12.302 17.374,17.129 C -13.86,-1.526 -8.859,-1.879 0,0"
               style="fill:#0090cb;fill-opacity:1;fill-rule:nonzero;stroke:none"
               id="path66" /></g></g></g></g></g></svg>