<?xml version="1.0" encoding="UTF-8" standalone="no"?>
<!-- Generator: Adobe Illustrator 19.1.0, SVG Export Plug-In . SVG Version: 6.00 Build 0)  -->

<svg
   xmlns:dc="http://purl.org/dc/elements/1.1/"
   xmlns:cc="http://creativecommons.org/ns#"
   xmlns:rdf="http://www.w3.org/1999/02/22-rdf-syntax-ns#"
   xmlns:svg="http://www.w3.org/2000/svg"
   xmlns="http://www.w3.org/2000/svg"
   xmlns:xlink="http://www.w3.org/1999/xlink"
   xmlns:sodipodi="http://sodipodi.sourceforge.net/DTD/sodipodi-0.dtd"
   xmlns:inkscape="http://www.inkscape.org/namespaces/inkscape"
   version="1.1"
   id="Layer_1"
   x="0px"
   y="0px"
   viewBox="0 0 410.70001 110.8"
   xml:space="preserve"
   inkscape:version="0.91 r13725"
   sodipodi:docname="edx-openedx-logo+powered-by-dark.svg"
   width="410.70001"
   height="110.8"><metadata
     id="metadata3836"><rdf:RDF><cc:Work
         rdf:about=""><dc:format>image/svg+xml</dc:format><dc:type
           rdf:resource="http://purl.org/dc/dcmitype/StillImage" /><dc:title></dc:title></cc:Work></rdf:RDF></metadata><defs
     id="defs3834" /><sodipodi:namedview
     pagecolor="#ffffff"
     bordercolor="#666666"
     borderopacity="1"
     objecttolerance="10"
     gridtolerance="10"
     guidetolerance="10"
     inkscape:pageopacity="0"
     inkscape:pageshadow="2"
     inkscape:window-width="753"
     inkscape:window-height="480"
     id="namedview3832"
     showgrid="false"
     fit-margin-top="5"
     fit-margin-left="5"
     fit-margin-right="5"
     fit-margin-bottom="5"
     inkscape:zoom="0.37125"
     inkscape:cx="208"
     inkscape:cy="41.5"
     inkscape:window-x="0"
     inkscape:window-y="24"
     inkscape:window-maximized="0"
     inkscape:current-layer="Layer_1" /><style
     type="text/css"
     id="style3762">
	.st0{fill:#B6B7B9;}
	.st1{opacity:0.75;}
	.st2{clip-path:url(#SVGID_2_);fill:#777777;}
	.st3{clip-path:url(#SVGID_2_);fill:#515151;}
	.st4{clip-path:url(#SVGID_2_);}
	.st5{clip-path:url(#SVGID_4_);fill:#3B3B3B;}
	.st6{clip-path:url(#SVGID_4_);fill:#8C8C8C;}
	.st7{clip-path:url(#SVGID_4_);fill:#595959;}
	.st8{fill:#ABABAD;}
</style><g
     id="g3764"
     transform="translate(-192,-230.7)"><path
       class="st0"
       d="m 403.9,326.1 0.2,0 0,-51.3 6.1,0 0,60.2 -7.7,0 -35,-51.8 -0.2,0 0,51.8 -6.1,0 0,-60.2 7.6,0 35.1,51.3 z"
       id="path3766"
       inkscape:connector-curvature="0"
       style="fill:#b6b7b9" /></g><g
     id="g3768"
     transform="translate(-192,-230.7)"><path
       class="st0"
       d="m 319.4,329.6 32.2,0 0,5.4 -38.3,0 0,-60.2 37.3,0 0,5.4 -31.2,0 0,20.7 29.2,0 0,5.4 -29.2,0 0,23.3 z"
       id="path3770"
       inkscape:connector-curvature="0"
       style="fill:#b6b7b9" /></g><g
     id="g3772"
     transform="translate(-192,-230.7)"><path
       class="st0"
       d="m 268.3,274.8 17,0 c 3.1,0 5.8,0.3 8.3,1 2.5,0.7 4.6,1.6 6.4,3 1.8,1.3 3.2,3 4.1,5 1,2 1.4,4.4 1.4,7.1 0,2.7 -0.5,5.1 -1.5,7.1 -1,2 -2.4,3.7 -4.2,5 -1.8,1.3 -3.9,2.3 -6.5,3 -2.5,0.7 -5.3,1 -8.4,1 l -10.7,0 0,28 -6.1,0 0,-60.2 z m 6.1,27.1 10.4,0 c 4.8,0 8.5,-0.9 11,-2.8 2.5,-1.9 3.7,-4.6 3.7,-8.2 0,-3.7 -1.3,-6.5 -3.9,-8.2 -2.6,-1.7 -6.2,-2.6 -10.8,-2.6 l -10.4,0 0,21.8 z"
       id="path3774"
       inkscape:connector-curvature="0"
       style="fill:#b6b7b9" /></g><g
     id="g3776"
     transform="translate(-192,-230.7)"><path
       class="st0"
       d="m 259,303.8 c 0,4.5 -0.8,8.7 -2.4,12.5 -1.6,3.8 -3.7,7.1 -6.5,9.9 -2.8,2.8 -6,4.9 -9.8,6.5 -3.8,1.6 -7.9,2.4 -12.3,2.4 -4.4,0 -8.5,-0.8 -12.3,-2.4 -3.8,-1.6 -7.1,-3.7 -9.8,-6.5 -2.8,-2.8 -4.9,-6.1 -6.5,-9.9 -1.6,-3.8 -2.4,-8 -2.4,-12.5 0,-4.5 0.8,-8.7 2.4,-12.5 1.6,-3.8 3.7,-7.1 6.5,-9.9 2.8,-2.8 6,-4.9 9.8,-6.5 3.8,-1.6 7.9,-2.4 12.3,-2.4 4.4,0 8.5,0.8 12.3,2.4 3.8,1.6 7.1,3.7 9.8,6.5 2.8,2.8 4.9,6.1 6.5,9.9 1.6,3.8 2.4,7.9 2.4,12.5 z m -6.4,0 c 0,-3.5 -0.6,-6.8 -1.7,-9.9 -1.1,-3.1 -2.7,-5.9 -4.9,-8.3 -2.1,-2.4 -4.7,-4.3 -7.8,-5.7 -3.1,-1.4 -6.5,-2.1 -10.3,-2.1 -3.8,0 -7.2,0.7 -10.3,2.1 -3.1,1.4 -5.6,3.3 -7.8,5.7 -2.1,2.4 -3.8,5.1 -4.9,8.3 -1.1,3.1 -1.7,6.4 -1.7,9.9 0,3.5 0.6,6.8 1.7,9.9 1.1,3.1 2.7,5.9 4.9,8.2 2.1,2.3 4.7,4.2 7.8,5.6 3.1,1.4 6.5,2.1 10.3,2.1 3.8,0 7.2,-0.7 10.3,-2.1 3.1,-1.4 5.6,-3.3 7.8,-5.6 2.1,-2.3 3.8,-5.1 4.9,-8.2 1.1,-3.1 1.7,-6.4 1.7,-9.9 z"
       id="path3778"
       inkscape:connector-curvature="0"
       style="fill:#b6b7b9" /></g><g
     class="st1"
     id="g3780"
     style="opacity:0.75"
     transform="translate(-192,-230.7)"><g
       id="g3782"><defs
         id="defs3784"><rect
           id="SVGID_1_"
           x="419.29999"
           y="249.39999"
           width="179.60001"
           height="115.3" /></defs><clipPath
         id="SVGID_2_"><use
           xlink:href="#SVGID_1_"
           style="overflow:visible"
           id="use3788"
           x="0"
           y="0"
           width="100%"
           height="100%" /></clipPath><polygon
         class="st2"
         points="559.6,283.7 546.5,267.5 553.9,267.5 553.9,254.5 529.7,254.5 529.7,269.1 550.6,294.8 529.7,320.6 529.7,323.2 539.6,323.2 539.6,336.5 553.9,336.5 553.9,323.2 545.6,323.2 559.6,306 559.6,306 573.6,323.2 565.4,323.2 565.4,336.5 597.7,336.5 597.7,323.2 591.7,323.2 568.6,294.8 590.8,267.5 597.7,267.5 597.7,254.5 565.4,254.5 565.4,267.5 572.7,267.5 "
         id="polygon3790"
         clip-path="url(#SVGID_2_)"
         style="fill:#777777" /><polygon
         class="st3"
         points="529.7,269.1 529.7,254.5 521.3,254.5 521.3,267.5 528.4,267.5 "
         id="polygon3792"
         clip-path="url(#SVGID_2_)"
         style="fill:#515151" /><polygon
         class="st3"
         points="539.6,336.5 539.6,323.2 529.7,323.2 529.7,320.6 527.6,323.2 521.3,323.2 521.3,336.5 "
         id="polygon3794"
         clip-path="url(#SVGID_2_)"
         style="fill:#515151" /><g
         class="st4"
         id="g3796"
         clip-path="url(#SVGID_2_)"><defs
           id="defs3798"><rect
             id="SVGID_3_"
             x="420.39999"
             y="254.5"
             width="177.3"
             height="82" /></defs><clipPath
           id="SVGID_4_"><use
             xlink:href="#SVGID_3_"
             style="overflow:visible"
             id="use3802"
             x="0"
             y="0"
             width="100%"
             height="100%" /></clipPath><path
           class="st5"
           d="m 469.3,317.1 11.5,0 c -1.4,3.4 -3.3,6.5 -5.6,9.1 -2.4,-2.6 -4.4,-5.7 -5.9,-9.1"
           id="path3804"
           clip-path="url(#SVGID_4_)"
           inkscape:connector-curvature="0"
           style="fill:#3b3b3b" /><path
           class="st5"
           d="m 475.2,283.3 c -3.3,3.6 -5.8,7.9 -7.1,12.7 0.5,1 1,2.1 1.3,3.3 l 11.4,0 c 0.3,-1.1 0.8,-2.2 1.3,-3.2 -1.3,-4.8 -3.7,-9.2 -6.9,-12.8 m -5.8,16 c 0.5,1.7 0.8,3.6 0.8,5.4 0,1.8 -0.2,3.5 -0.7,5.1 l 11.2,0 c -0.5,-1.6 -0.7,-3.4 -0.7,-5.1 0,-1.9 0.3,-3.7 0.8,-5.4 l -11.4,0 z m 0,0 -2.1,0 c -0.3,1.8 -0.5,3.6 -0.5,5.4 0,1.8 0.1,3.5 0.4,5.1 l 2.2,0 c 0.5,-1.6 0.7,-3.4 0.7,-5.1 0,-1.8 -0.2,-3.7 -0.7,-5.4"
           id="path3806"
           clip-path="url(#SVGID_4_)"
           inkscape:connector-curvature="0"
           style="fill:#3b3b3b" /><path
           class="st6"
           d="m 528.4,267.5 -7.1,0 0,-13 -13.3,0 0,13 8.6,0 0,11.2 c -5,-3.6 -11.2,-5.7 -18,-5.7 -9.3,0 -17.6,4 -23.4,10.3 3.2,3.6 5.6,8 6.9,12.8 3.1,-5.9 9.3,-9.9 16.4,-9.9 10.2,0 18.1,8.3 18.1,18.5 l 0,0.1 c -0.1,10.2 -7.9,18.4 -18.1,18.4 -7.1,0 -13.3,-4 -16.4,-9.9 l 0,0 c -0.6,-1.1 -1.1,-2.3 -1.4,-3.5 l -13.4,0 c 0.2,1.2 0.5,2.4 0.8,3.6 0.4,1.2 0.8,2.5 1.3,3.6 l 11.5,0 c -1.4,3.4 -3.3,6.5 -5.6,9.1 5.8,6.3 14.2,10.3 23.4,10.3 6.8,0 12.9,-2.1 18,-5.7 1.7,-1.2 3.3,-2.6 4.7,-4.2 l 0,-3.4 6.2,0 2.1,-2.6 0,-51.6 -1.3,-1.4 z m -11.8,63.3 0,5.7 4.7,0 0,-9.9 c -1.4,1.6 -3,3 -4.7,4.2 M 468.1,296 c -0.3,1.1 -0.6,2.2 -0.7,3.3 l 2.1,0 c -0.5,-1.1 -0.9,-2.2 -1.4,-3.3"
           id="path3808"
           clip-path="url(#SVGID_4_)"
           inkscape:connector-curvature="0"
           style="fill:#8c8c8c" /><path
           class="st7"
           d="m 482.8,299.3 c -0.2,-1.1 -0.4,-2.2 -0.7,-3.2 -0.5,1 -1,2.1 -1.3,3.2 -0.5,1.7 -0.8,3.6 -0.8,5.4 0,1.8 0.3,3.5 0.7,5.1 l 2.2,0 c 0.3,-1.7 0.4,-3.4 0.4,-5.1 -0.1,-1.8 -0.2,-3.6 -0.5,-5.4 M 452.2,273 c -15.7,0 -28.7,11.4 -31.3,26.3 l 13.4,0 c 2.3,-7.6 9.4,-13.1 17.7,-13.1 7.1,0 13,4 16,9.8 1.4,-4.8 3.8,-9.2 7.1,-12.7 C 469.6,277 461.4,273 452.2,273 m 13.4,44.1 c -3.3,3.8 -8.1,6.2 -13.6,6.2 -8.5,0 -15.6,-5.7 -17.8,-13.4 l 33.1,0 c -0.3,-1.7 -0.4,-3.4 -0.4,-5.1 0,-1.9 0.2,-3.7 0.5,-5.4 l -46.4,0 c -0.3,1.8 -0.5,3.6 -0.5,5.4 0,1.8 0.1,3.5 0.4,5.1 2.5,15.1 15.6,26.6 31.4,26.6 9.3,0 17.4,-4 23,-10.3 -2.4,-2.7 -4.4,-5.7 -5.9,-9.1 l -3.8,0 z"
           id="path3810"
           clip-path="url(#SVGID_4_)"
           inkscape:connector-curvature="0"
           style="fill:#595959" /></g></g></g><g
     id="g3812"
     transform="translate(-192,-230.7)"><path
       class="st8"
       d="m 202.8,236.2 6,0 c 1.1,0 2.1,0.1 2.9,0.3 0.9,0.2 1.6,0.6 2.3,1 0.6,0.5 1.1,1.1 1.5,1.8 0.3,0.7 0.5,1.5 0.5,2.5 0,1 -0.2,1.8 -0.5,2.5 -0.4,0.7 -0.8,1.3 -1.5,1.8 -0.6,0.5 -1.4,0.8 -2.3,1.1 -0.9,0.2 -1.9,0.4 -3,0.4 l -3.7,0 0,9.9 -2.2,0 0,-21.3 z m 2.2,9.5 3.7,0 c 1.7,0 3,-0.3 3.9,-1 0.9,-0.7 1.3,-1.6 1.3,-2.9 0,-1.3 -0.5,-2.3 -1.4,-2.9 -0.9,-0.6 -2.2,-0.9 -3.8,-0.9 l -3.7,0 0,7.7 z"
       id="path3814"
       inkscape:connector-curvature="0"
       style="fill:#ababad" /><path
       class="st8"
       d="m 243,246.8 c 0,1.6 -0.3,3.1 -0.8,4.5 -0.6,1.4 -1.3,2.5 -2.3,3.5 -1,1 -2.2,1.8 -3.5,2.3 -1.4,0.6 -2.8,0.8 -4.4,0.8 -1.6,0 -3,-0.3 -4.4,-0.8 -1.4,-0.6 -2.5,-1.3 -3.5,-2.3 -1,-1 -1.8,-2.2 -2.3,-3.5 -0.6,-1.4 -0.8,-2.9 -0.8,-4.5 0,-1.6 0.3,-3.1 0.8,-4.5 0.6,-1.4 1.3,-2.5 2.3,-3.5 1,-1 2.2,-1.8 3.5,-2.3 1.4,-0.6 2.8,-0.8 4.4,-0.8 1.6,0 3,0.3 4.4,0.8 1.4,0.6 2.5,1.3 3.5,2.3 1,1 1.8,2.2 2.3,3.5 0.5,1.4 0.8,2.9 0.8,4.5 z m -2.3,0 c 0,-1.2 -0.2,-2.4 -0.6,-3.5 -0.4,-1.1 -1,-2.1 -1.7,-3 -0.8,-0.8 -1.7,-1.5 -2.8,-2 -1.1,-0.5 -2.3,-0.7 -3.7,-0.7 -1.4,0 -2.6,0.2 -3.7,0.7 -1.1,0.5 -2,1.2 -2.8,2 -0.8,0.8 -1.3,1.8 -1.7,3 -0.4,1.1 -0.6,2.3 -0.6,3.5 0,1.2 0.2,2.4 0.6,3.5 0.4,1.1 1,2.1 1.7,2.9 0.8,0.8 1.7,1.5 2.8,2 1.1,0.5 2.3,0.7 3.7,0.7 1.4,0 2.6,-0.2 3.7,-0.7 1.1,-0.5 2,-1.2 2.8,-2 0.8,-0.8 1.3,-1.8 1.7,-2.9 0.4,-1.1 0.6,-2.3 0.6,-3.5 z"
       id="path3816"
       inkscape:connector-curvature="0"
       style="fill:#ababad" /><path
       class="st8"
       d="m 253.2,254.4 0,0 5.4,-18.3 2.6,0 5.3,18.3 0.1,0 5.2,-18.3 2.3,0 -6.3,21.2 -2.5,0 -5.3,-18.2 -0.1,0 -5.3,18.2 -2.6,0 -6.3,-21.2 2.3,0 5.2,18.3 z"
       id="path3818"
       inkscape:connector-curvature="0"
       style="fill:#ababad" /><path
       class="st8"
       d="m 281.8,255.5 11.4,0 0,1.9 -13.5,0 0,-21.2 13.2,0 0,1.9 -11,0 0,7.3 10.3,0 0,1.9 -10.3,0 0,8.2 z"
       id="path3820"
       inkscape:connector-curvature="0"
       style="fill:#ababad" /><path
       class="st8"
       d="m 302,257.4 -2.2,0 0,-21.2 6.2,0 c 1,0 2,0.1 2.9,0.3 0.9,0.2 1.7,0.5 2.3,1 0.6,0.4 1.2,1 1.5,1.8 0.4,0.7 0.5,1.6 0.5,2.6 0,0.8 -0.1,1.5 -0.4,2.1 -0.3,0.6 -0.7,1.2 -1.1,1.7 -0.5,0.5 -1,0.8 -1.7,1.1 -0.7,0.3 -1.4,0.5 -2.2,0.5 l 6.2,10.1 -2.6,0 -5.9,-9.9 -3.5,0 0,9.9 z m 0,-11.8 3.8,0 c 1.7,0 3.1,-0.3 4,-0.9 0.9,-0.6 1.4,-1.6 1.4,-2.8 0,-0.7 -0.1,-1.3 -0.4,-1.8 -0.3,-0.5 -0.6,-0.9 -1.1,-1.2 -0.5,-0.3 -1,-0.5 -1.7,-0.7 -0.7,-0.1 -1.4,-0.2 -2.2,-0.2 l -3.8,0 0,7.6 z"
       id="path3822"
       inkscape:connector-curvature="0"
       style="fill:#ababad" /><path
       class="st8"
       d="m 321.8,255.5 11.4,0 0,1.9 -13.5,0 0,-21.2 13.2,0 0,1.9 -11,0 0,7.3 10.3,0 0,1.9 -10.3,0 0,8.2 z"
       id="path3824"
       inkscape:connector-curvature="0"
       style="fill:#ababad" /><path
       class="st8"
       d="m 339.8,236.2 7.1,0 c 1.3,0 2.6,0.2 4,0.7 1.3,0.4 2.5,1.1 3.6,2 1.1,0.9 1.9,2 2.6,3.3 0.7,1.3 1,2.9 1,4.6 0,1.8 -0.3,3.3 -1,4.6 -0.7,1.3 -1.5,2.4 -2.6,3.3 -1.1,0.9 -2.3,1.6 -3.6,2 -1.3,0.4 -2.7,0.7 -4,0.7 l -7.1,0 0,-21.2 z m 2.1,19.3 4.3,0 c 1.6,0 3,-0.2 4.2,-0.8 1.2,-0.5 2.2,-1.2 3,-2 0.8,-0.8 1.4,-1.7 1.8,-2.8 0.4,-1 0.6,-2.1 0.6,-3.2 0,-1.1 -0.2,-2.2 -0.6,-3.2 -0.4,-1 -1,-2 -1.8,-2.8 -0.8,-0.8 -1.8,-1.5 -3,-2 -1.2,-0.5 -2.6,-0.8 -4.2,-0.8 l -4.3,0 0,17.6 z"
       id="path3826"
       inkscape:connector-curvature="0"
       style="fill:#ababad" /><path
       class="st8"
       d="m 374.8,236.2 6.3,0 c 0.8,0 1.6,0.1 2.4,0.3 0.8,0.2 1.6,0.5 2.2,0.9 0.6,0.4 1.2,1 1.6,1.7 0.4,0.7 0.6,1.6 0.6,2.6 0,1.1 -0.3,2.1 -1,2.9 -0.7,0.8 -1.6,1.4 -2.7,1.6 l 0,0.1 c 1.4,0.2 2.5,0.7 3.4,1.6 0.9,0.9 1.4,2.1 1.4,3.7 0,0.9 -0.2,1.7 -0.6,2.4 -0.4,0.7 -0.9,1.3 -1.6,1.9 -0.7,0.5 -1.5,0.9 -2.5,1.2 -1,0.3 -2.1,0.4 -3.3,0.4 l -6.3,0 0,-21.3 z m 2.1,9.3 4.4,0 c 0.5,0 1,-0.1 1.6,-0.2 0.5,-0.1 1,-0.3 1.5,-0.6 0.4,-0.3 0.8,-0.7 1.1,-1.2 0.3,-0.5 0.4,-1.1 0.4,-1.8 0,-0.7 -0.1,-1.3 -0.4,-1.7 -0.3,-0.5 -0.6,-0.9 -1.1,-1.2 -0.5,-0.3 -1,-0.5 -1.6,-0.6 -0.6,-0.1 -1.3,-0.2 -2,-0.2 l -3.8,0 0,7.5 z m 0,10 4,0 c 0.8,0 1.5,-0.1 2.2,-0.2 0.7,-0.1 1.3,-0.4 1.9,-0.7 0.5,-0.3 1,-0.8 1.3,-1.3 0.3,-0.5 0.5,-1.2 0.5,-1.9 0,-1.4 -0.5,-2.4 -1.4,-3.1 -1,-0.7 -2.3,-1 -4,-1 l -4.4,0 0,8.2 z"
       id="path3828"
       inkscape:connector-curvature="0"
       style="fill:#ababad" /><path
       class="st8"
       d="m 401.7,257.4 -2.2,0 0,-9.1 -8,-12.1 2.7,0 6.4,10.3 6.5,-10.3 2.5,0 -8,12.1 0,9.1 z"
       id="path3830"
       inkscape:connector-curvature="0"
       style="fill:#ababad" /></g></svg>